<svg width="16" height="16" fill="none" xmlns="http://www.w3.org/2000/svg"><path fill-rule="evenodd" clip-rule="evenodd" d="M15.128 9.526c0 1.841-.84 3.781-2.232 4.95-1.281 1.075-3.035 1.452-4.932 1.452-1.897 0-3.65-.377-4.933-1.453C1.64 13.307.8 11.367.8 9.526c0-1.357.472-2.616 1.279-3.651.346-.475.759-.906 1.234-1.281.384-.302.696-.61 1.024-.972C5.352 2.5 6.757 1.084 8.064.347 8.405.154 8.732.003 9.124 0a.73.73 0 0 1 .54 1.237c-.31.347-1.18 1.301-1.715 1.887h.015c.258 0 .513.013.764.036l.059-.06a5.3 5.3 0 0 1 .146-.148c.803-.8 4.563-4.212 5.282-2.183.058.289-.03.51-.194.725-.693.906-1.452 1.728-2.23 2.57l-.02.022A6.2 6.2 0 0 1 14 6.076a5.887 5.887 0 0 1 1.13 3.45Zm-6.02.09c.517-.087.847-.682.737-1.329-.11-.646-.618-1.098-1.135-1.01-.516.087-.846.682-.736 1.329.11.646.618 1.099 1.135 1.01Zm5.024-1.329c.11.647-.144 1.229-.567 1.3-.423.073-.855-.393-.965-1.039-.11-.646.144-1.228.567-1.3.423-.072.855.393.965 1.04Z" fill="#fff"/></svg>